<?xml version="1.0" encoding="utf-8"?>
<!-- Generator: Adobe Illustrator 19.0.0, SVG Export Plug-In . SVG Version: 6.00 Build 0)  -->
<svg version="1.1" id="Layer_1" xmlns="http://www.w3.org/2000/svg" xmlns:xlink="http://www.w3.org/1999/xlink" x="0px" y="0px"
	 viewBox="-241 332 129 130" style="enable-background:new -241 332 129 130;" xml:space="preserve">
<style type="text/css">
	.st0{fill:#F4F4F4;}
	.st1{fill:#E7E7E7;}
	.st2{fill:#DBDADA;}
	.st3{fill:#545050;}
	.st4{fill:#ECF3F2;}
	.st5{filter:url(#Adobe_OpacityMaskFilter);}
	.st6{fill:#FFFFFF;}
	.st7{mask:url(#mask-2);fill:#ECECEC;}
	.st8{fill:#30D391;}
	.st9{fill:#21A872;}
	.st10{fill:#BABABA;}
	.st11{enable-background:new    ;}
	.st12{fill:#177E55;}
	.st13{fill:#D3CFCF;}
	.st14{fill:#5B5F5D;}
	.st15{fill:#FFC812;}
	.st16{fill:#111111;}
	.st17{fill:#B3B3B3;}
</style>
<path id="Mask-Copy-3" class="st0" d="M-230.2,339.8H-115c1.1,0,2,0.9,2,2v101.8c0,1.1-0.9,2-2,2h-115.2c-1.1,0-2-0.9-2-2V341.8
	C-232.2,340.7-231.4,339.8-230.2,339.8z"/>
<path id="Mask-Copy-6" class="st1" d="M-231.3,337.6h115.2c1.1,0,2,0.9,2,2v101.8c0,1.1-0.9,2-2,2h-115.2c-1.1,0-2-0.9-2-2V339.6
	C-233.3,338.5-232.4,337.6-231.3,337.6z"/>
<path id="Mask-Copy-5" class="st2" d="M-232.4,335.5h115.2c1.1,0,2,0.9,2,2v101.8c0,1.1-0.9,2-2,2h-115.2c-1.1,0-2-0.9-2-2V337.5
	C-234.4,336.3-233.5,335.5-232.4,335.5z"/>
<path id="Rectangle-62-Copy-25_1_" class="st3" d="M-236.9,334.5h118c1.1,0,2,0.9,2,2v100.8c0,1.1-0.9,2-2,2h-118c-1.1,0-2-0.9-2-2
	V336.5C-238.9,335.4-238,334.5-236.9,334.5z"/>
<path id="path-1_1_" class="st4" d="M-235.6,346.4h115.2c1.1,0,2,0.9,2,2v87.4c0,1.1-0.9,2-2,2h-115.2c-1.1,0-2-0.9-2-2v-87.4
	C-237.6,347.3-236.7,346.4-235.6,346.4z"/>
<defs>
	<filter id="Adobe_OpacityMaskFilter" filterUnits="userSpaceOnUse" x="-241.9" y="388.6" width="67.8" height="52.6">
		<feColorMatrix  type="matrix" values="1 0 0 0 0  0 1 0 0 0  0 0 1 0 0  0 0 0 1 0"/>
	</filter>
</defs>
<mask maskUnits="userSpaceOnUse" x="-241.9" y="388.6" width="67.8" height="52.6" id="mask-2">
	<g class="st5">
		<path id="path-1" class="st6" d="M-235.6,346.4h115.2c1.1,0,2,0.9,2,2v87.4c0,1.1-0.9,2-2,2h-115.2c-1.1,0-2-0.9-2-2v-87.4
			C-237.6,347.3-236.7,346.4-235.6,346.4z"/>
	</g>
</mask>
<path id="Rectangle-62-Copy-16" class="st7" d="M-240.4,403.3l54.7-14.6c1.1-0.3,2.2,0.3,2.4,1.4l9.1,34c0.3,1.1-0.3,2.2-1.4,2.4
	l-54.7,14.6c-1.1,0.3-2.2-0.3-2.4-1.4l-9.1-34C-242.1,404.7-241.4,403.6-240.4,403.3z"/>
<path id="Rectangle-62-Copy-25" class="st3" d="M-235.8,334.5h115.6c1.1,0,2,0.9,2,2V360c0,1.1-0.9,2-2,2h-115.6c-1.1,0-2-0.9-2-2
	v-23.5C-237.8,335.4-236.9,334.5-235.8,334.5z"/>
<path id="Rectangle-62-Copy-26" class="st8" d="M-235.8,346.5h115.6c1.1,0,2,0.9,2,2v23.5c0,1.1-0.9,2-2,2h-115.6c-1.1,0-2-0.9-2-2
	v-23.5C-237.8,347.4-236.9,346.5-235.8,346.5z"/>
<path id="Rectangle-62-Copy-27" class="st9" d="M-140.7,358h15.5c1.1,0,2,0.9,2,2v0.3c0,1.1-0.9,2-2,2h-15.5c-1.1,0-2-0.9-2-2V360
	C-142.7,358.9-141.8,358-140.7,358z"/>
<path id="Rectangle-62-Copy-28" class="st9" d="M-164.3,358h15.5c1.1,0,2,0.9,2,2v0.3c0,1.1-0.9,2-2,2h-15.5c-1.1,0-2-0.9-2-2V360
	C-166.3,358.9-165.5,358-164.3,358z"/>
<g>
	<rect x="-230.2" y="390.4" class="st10" width="1.5" height="3"/>
	<rect x="-230.2" y="395.4" class="st10" width="1.5" height="3"/>
	<path class="st10" d="M-228.7,385.8c0-0.1,0-0.3,0-0.4l-1.5-0.3c-0.1,0.2-0.1,0.5-0.1,0.7v2.6h1.5V385.8z"/>
	<path class="st10" d="M-226.7,415.4c-0.4,0-0.8-0.1-1.1-0.4l-0.9,1.2c0.6,0.4,1.3,0.6,2,0.6h1.8v-1.5H-226.7z"/>
	<path class="st10" d="M-226.7,383.8h3v-1.5h-3c-0.4,0-0.8,0.1-1.2,0.2l0.5,1.4C-227.2,383.8-226.9,383.8-226.7,383.8z"/>
	<rect x="-230.2" y="410.4" class="st10" width="1.5" height="3"/>
	<rect x="-230.2" y="405.4" class="st10" width="1.5" height="3"/>
	<rect x="-230.2" y="400.4" class="st10" width="1.5" height="3"/>
	<rect x="-221.7" y="382.3" class="st10" width="3" height="1.5"/>
	<rect x="-191.7" y="382.3" class="st10" width="3" height="1.5"/>
	<rect x="-186.7" y="382.3" class="st10" width="3" height="1.5"/>
	<rect x="-181.7" y="382.3" class="st10" width="3" height="1.5"/>
	<rect x="-196.7" y="382.3" class="st10" width="3" height="1.5"/>
	<rect x="-201.7" y="382.3" class="st10" width="3" height="1.5"/>
	<rect x="-211.7" y="382.3" class="st10" width="3" height="1.5"/>
	<rect x="-206.7" y="382.3" class="st10" width="3" height="1.5"/>
	<rect x="-216.7" y="382.3" class="st10" width="3" height="1.5"/>
	<rect x="-176.7" y="382.3" class="st10" width="3" height="1.5"/>
	<rect x="-170.7" y="408.7" class="st10" width="1.5" height="3"/>
	<rect x="-170.7" y="398.7" class="st10" width="1.5" height="3"/>
	<rect x="-170.7" y="403.7" class="st10" width="1.5" height="3"/>
	<path class="st10" d="M-172.7,415.4h-0.1v1.5h0.1c1.7,0,3.2-1.3,3.5-3l-1.5-0.2C-170.9,414.7-171.7,415.4-172.7,415.4z"/>
	<path class="st10" d="M-171,382.8l-0.8,1.3c0.6,0.3,1,1,1,1.7v0.9h1.5v-0.9C-169.2,384.5-169.9,383.4-171,382.8z"/>
	<rect x="-177.9" y="415.4" class="st10" width="3" height="1.5"/>
	<rect x="-170.7" y="393.7" class="st10" width="1.5" height="3"/>
	<rect x="-170.7" y="388.7" class="st10" width="1.5" height="3"/>
	<rect x="-197.9" y="415.4" class="st10" width="3" height="1.5"/>
	<rect x="-182.9" y="415.4" class="st10" width="3" height="1.5"/>
	<rect x="-207.9" y="415.4" class="st10" width="3" height="1.5"/>
	<rect x="-217.9" y="415.4" class="st10" width="3" height="1.5"/>
	<rect x="-202.9" y="415.4" class="st10" width="3" height="1.5"/>
	<rect x="-212.9" y="415.4" class="st10" width="3" height="1.5"/>
	<rect x="-187.9" y="415.4" class="st10" width="3" height="1.5"/>
	<rect x="-222.9" y="415.4" class="st10" width="3" height="1.5"/>
	<rect x="-192.9" y="415.4" class="st10" width="3" height="1.5"/>
</g>
<path id="Rectangle-62-Copy-29" class="st9" d="M-187.2,358h15.5c1.1,0,2,0.9,2,2v0.3c0,1.1-0.9,2-2,2h-15.5c-1.1,0-2-0.9-2-2V360
	C-189.2,358.9-188.4,358-187.2,358z"/>
<g class="st11">
	<path class="st12" d="M-220,363.3c0.1,0.1,0.1,0.2,0.1,0.3s0,0.2-0.1,0.3c-0.1,0.1-0.2,0.1-0.3,0.1h-3.6c-0.2,0-0.3-0.1-0.5-0.2
		c-0.1-0.1-0.2-0.3-0.2-0.4v-6c0-0.1,0-0.2,0.1-0.3c0.1-0.1,0.2-0.1,0.3-0.1s0.2,0,0.3,0.1c0.1,0.1,0.1,0.2,0.1,0.3v5.7h3.3
		C-220.2,363.2-220.1,363.2-220,363.3z"/>
	<path class="st12" d="M-215.6,356.9c1.1,0,1.9,0.3,2.6,1c0.6,0.7,1,1.5,1,2.6c0,1.1-0.4,1.9-1,2.6c-0.6,0.7-1.5,1-2.6,1
		c-1.1,0-1.9-0.3-2.6-1c-0.6-0.7-1-1.5-1-2.6c0-1.1,0.3-1.9,1-2.6C-217.5,357.3-216.7,356.9-215.6,356.9z M-215.6,363.3
		c0.8,0,1.5-0.3,1.9-0.8c0.5-0.5,0.7-1.2,0.7-2c0-0.8-0.2-1.5-0.7-2c-0.5-0.5-1.1-0.8-1.9-0.8s-1.5,0.3-1.9,0.8
		c-0.5,0.5-0.7,1.2-0.7,2c0,0.8,0.2,1.5,0.7,2C-217.1,363.1-216.4,363.3-215.6,363.3z"/>
	<path class="st12" d="M-207.3,363.3c0.6,0,1.2-0.1,1.8-0.4v-1.8h-1.7c-0.1,0-0.2,0-0.3-0.1c-0.1-0.1-0.1-0.2-0.1-0.3
		c0-0.1,0-0.2,0.1-0.3s0.2-0.1,0.3-0.1h2c0.1,0,0.2,0,0.3,0.1c0.1,0.1,0.1,0.2,0.1,0.3v2.3c0,0.1,0,0.3-0.1,0.4
		c-0.1,0.1-0.2,0.2-0.3,0.2c-0.8,0.4-1.5,0.6-2.3,0.6c-1.1,0-1.9-0.3-2.6-1c-0.7-0.7-1-1.5-1-2.6c0-1.1,0.3-2,1-2.6
		c0.7-0.7,1.5-1,2.5-1c0.6,0,1.1,0.1,1.5,0.2s0.8,0.3,1.1,0.5c0.1,0.1,0.2,0.2,0.2,0.3c0,0.1,0,0.2-0.1,0.3
		c-0.1,0.1-0.2,0.1-0.3,0.1s-0.2,0-0.3-0.1c-0.7-0.4-1.3-0.6-2-0.6c-0.8,0-1.4,0.2-1.9,0.7c-0.5,0.5-0.8,1.2-0.8,2
		c0,0.8,0.2,1.4,0.7,2C-208.8,363.1-208.2,363.3-207.3,363.3z"/>
	<path class="st12" d="M-199.9,356.9c1.1,0,1.9,0.3,2.6,1c0.6,0.7,1,1.5,1,2.6c0,1.1-0.4,1.9-1,2.6c-0.6,0.7-1.5,1-2.6,1
		c-1.1,0-1.9-0.3-2.6-1c-0.6-0.7-1-1.5-1-2.6c0-1.1,0.3-1.9,1-2.6C-201.8,357.3-201,356.9-199.9,356.9z M-199.9,363.3
		c0.8,0,1.5-0.3,1.9-0.8c0.5-0.5,0.7-1.2,0.7-2c0-0.8-0.2-1.5-0.7-2c-0.5-0.5-1.1-0.8-1.9-0.8s-1.5,0.3-1.9,0.8
		c-0.5,0.5-0.7,1.2-0.7,2c0,0.8,0.2,1.5,0.7,2C-201.4,363.1-200.7,363.3-199.9,363.3z"/>
</g>
<path id="Rectangle-62-Copy-31" class="st8" d="M-161,417.5h25.5c1.1,0,2,0.9,2,2v4.4c0,1.1-0.9,2-2,2H-161c-1.1,0-2-0.9-2-2v-4.4
	C-163,418.4-162.1,417.5-161,417.5z"/>
<path id="Rectangle-62-Copy-32" class="st13" d="M-162.2,394.6h35.3c0.6,0,1,0.4,1,1v1.6c0,0.6-0.4,1-1,1h-35.3c-0.6,0-1-0.4-1-1
	v-1.6C-163.2,395-162.8,394.6-162.2,394.6z"/>
<path id="Rectangle-62-Copy-33" class="st13" d="M-162.2,401.2h29.8c0.6,0,1,0.4,1,1v1.5c0,0.6-0.4,1-1,1h-29.8c-0.6,0-1-0.4-1-1
	v-1.5C-163.2,401.6-162.8,401.2-162.2,401.2z"/>
<path id="Rectangle-62-Copy-34" class="st13" d="M-162.2,407.4h34.3c0.6,0,1,0.4,1,1v1.6c0,0.6-0.4,1-1,1h-34.3c-0.6,0-1-0.4-1-1
	v-1.6C-163.2,407.9-162.8,407.4-162.2,407.4z"/>
<path id="Rectangle-62-Copy-35" class="st14" d="M-161.3,383.9h34c1.1,0,2,0.9,2,2v2.2c0,1.1-0.9,2-2,2h-34c-1.1,0-2-0.9-2-2v-2.2
	C-163.3,384.8-162.4,383.9-161.3,383.9z"/>
<path id="Rectangle-62-Copy-9" class="st15" d="M-238.3,401.9l57.6-15.4c1.1-0.3,2.2,0.3,2.4,1.4l12.1,45.3c0.3,1.1-0.3,2.2-1.4,2.4
	l-57.6,15.4c-1.1,0.3-2.2-0.3-2.4-1.4l-12.1-45.3C-240,403.3-239.4,402.2-238.3,401.9z"/>
<g>
	<path id="Path-83_1_" class="st6" d="M-192.2,459l-0.8-3.1c0,0-6.4-5-9.2-6.8c-2.8-1.7-4.8-5.4-2.1-7.8c2.7-2.4,5.5,1.9,5.5,1.9
		s-7.1-8.5-2.4-10.6c3.3-1.5,5.4,3.1,5.4,3.1s-1.7-5.2,2.4-6.3c4-1.1,5.5,4.2,5.5,4.2s-1.3-4.7,1.9-5.5c3.1-0.8,4.8,2.9,4.8,2.9
		s-1.3-2.2,1.9-3c3.1-0.8,4,2.3,5.2,7c2.1,7.8-2.5,13.3-2.5,13.3l1.7,6.3l-3.1,0.8c0,0-2.9-2.6-4-2.3s-0.7,3.6-0.7,3.6L-192.2,459z"
		/>
	<path d="M-192.2,460c-0.2,0-0.3,0-0.5-0.1c-0.2-0.1-0.4-0.4-0.5-0.6l-0.8-2.8c-1.2-1-6.4-5-8.9-6.5c-2.2-1.3-3.7-3.5-3.9-5.5
		c-0.1-1.5,0.4-2.8,1.6-3.9c0.8-0.7,1.6-1,2.6-1c-0.9-1.8-1.7-3.8-1.3-5.5c0.3-1.1,1-2,2.1-2.5c1.8-0.8,3.4-0.2,4.6,0.7
		c0.1-0.6,0.3-1.2,0.6-1.8c0.6-1.1,1.5-1.8,2.8-2.1c2-0.5,3.6,0.2,4.7,1.3c0.3-1.2,1.1-2.3,2.6-2.7c1.8-0.5,3.3,0.2,4.4,1.2
		c0.5-0.6,1.2-1.1,2.3-1.3c1.9-0.5,3.4,0.1,4.4,1.9c0.8,1.4,1.4,3.4,2,5.8c1.9,7.1-1.3,12.2-2.4,13.7l1.6,5.8
		c0.1,0.5-0.2,1.1-0.7,1.2l-3.1,0.8c-0.3,0.1-0.7,0-0.9-0.2c-1.1-0.9-2.4-1.8-2.9-2c-0.1,0.5-0.2,1.5-0.1,2.4c0,0.5-0.3,0.9-0.7,1.1
		l-9.4,2.5C-192,460-192.1,460-192.2,460z M-202.6,441.6c-0.4,0-0.7,0.2-1.1,0.5c-0.7,0.6-1,1.4-0.9,2.2c0.1,1.4,1.3,3,2.9,4
		c2.9,1.8,9.1,6.6,9.3,6.8c0.2,0.1,0.3,0.3,0.3,0.5l0.6,2.2l7.6-2c-0.1-1.5,0.2-3.4,1.5-3.8c1.2-0.3,3,0.9,4.5,2.2l1.7-0.4l-1.4-5.3
		c-0.1-0.3,0-0.7,0.2-0.9c0.2-0.2,4.2-5.1,2.3-12.4c-0.6-2.2-1.1-4.2-1.8-5.3c-0.6-1-1.2-1.2-2.2-1c-0.7,0.2-1.2,0.5-1.3,0.8
		c-0.1,0.2,0,0.5,0,0.7c0,0.1,0.1,0.1,0.1,0.2c0.2,0.5,0,1.1-0.5,1.3c-0.5,0.2-1.1,0.1-1.3-0.4c0,0-0.1-0.1-0.1-0.2
		c-0.3-0.6-1.6-2.8-3.6-2.2c-2.1,0.6-1.2,4.3-1.2,4.3c0.1,0.5-0.2,1.1-0.7,1.2c-0.5,0.1-1.1-0.2-1.2-0.7c0-0.2-1.2-4.3-4.3-3.5
		c-0.7,0.2-1.3,0.6-1.6,1.2c-0.8,1.5-0.1,3.8-0.1,3.8c0.2,0.5-0.1,1-0.6,1.2c-0.5,0.2-1,0-1.3-0.5c-0.1-0.1-1.8-3.7-4.1-2.6
		c-0.6,0.2-0.9,0.6-1,1.1c-0.4,1.7,1.4,5,3,7.1c0.4,0.5,0.7,0.9,0.8,1c0.3,0.4,0.2,1-0.2,1.4c-0.4,0.3-1,0.2-1.4-0.2
		c-0.1-0.1-0.3-0.4-0.7-0.9c-0.6-0.6-1.4-1.3-2.1-1.4C-202.5,441.6-202.5,441.6-202.6,441.6z"/>
</g>
<path d="M-190.4,450.5c-0.4,0-0.8-0.3-1-0.7l-1.8-6.6c-0.1-0.5,0.2-1.1,0.7-1.2c0.5-0.1,1.1,0.2,1.2,0.7l1.8,6.6
	c0.1,0.5-0.2,1.1-0.7,1.2C-190.2,450.5-190.3,450.5-190.4,450.5z"/>
<path d="M-185.7,449.9c-0.4,0-0.8-0.3-1-0.7l-2.1-7.8c-0.1-0.5,0.2-1.1,0.7-1.2c0.5-0.1,1.1,0.2,1.2,0.7l2.1,7.8
	c0.1,0.5-0.2,1.1-0.7,1.2C-185.5,449.9-185.6,449.9-185.7,449.9z"/>
<path d="M-181.6,448.1c-0.4,0-0.8-0.3-1-0.7l-1.8-6.6c-0.1-0.5,0.2-1.1,0.7-1.2c0.5-0.1,1.1,0.2,1.2,0.7l1.8,6.6
	c0.1,0.5-0.2,1.1-0.7,1.2C-181.4,448.1-181.5,448.1-181.6,448.1z"/>
<path id="Rectangle-62-Copy-15" class="st15" d="M-224.6,439.8c-0.1-0.5,0.2-1.1,0.7-1.2l16.7-4.5c0.5-0.1,1.2,0.1,1.5,0.6l5.9,8.8
	c0.3,0.5,0.1,0.9-0.4,1.1l-20.7,5.3c-0.5,0.1-1.1-0.2-1.2-0.7L-224.6,439.8z"/>
<path id=":_x29_-copy" class="st16" d="M-200.7,406.4c0.3-0.1,0.7-0.2,1-0.1c0.4,0,0.7,0.1,1,0.3s0.6,0.4,0.9,0.7
	c0.3,0.3,0.5,0.7,0.6,1.2c0.1,0.4,0.2,0.9,0.2,1.3c0,0.4-0.1,0.8-0.3,1.1s-0.4,0.6-0.7,0.8c-0.3,0.2-0.6,0.4-0.9,0.5
	c-0.3,0.1-0.7,0.2-1,0.1c-0.4,0-0.7-0.1-1-0.3c-0.3-0.2-0.6-0.4-0.9-0.7c-0.3-0.3-0.5-0.7-0.6-1.1c-0.2-0.5-0.2-0.9-0.2-1.3
	c0-0.4,0.1-0.8,0.3-1.1c0.2-0.3,0.4-0.6,0.7-0.8C-201.4,406.6-201.1,406.5-200.7,406.4L-200.7,406.4z M-213.7,410.8
	c0.4,0,0.7,0.1,1,0.3s0.6,0.4,0.9,0.7c0.3,0.3,0.5,0.7,0.6,1.2c0.1,0.4,0.2,0.9,0.2,1.3c0,0.4-0.1,0.8-0.3,1.1
	c-0.2,0.3-0.4,0.6-0.7,0.8c-0.3,0.2-0.6,0.4-0.9,0.5c-0.3,0.1-0.7,0.2-1,0.1c-0.4,0-0.7-0.1-1-0.3c-0.3-0.2-0.6-0.4-0.9-0.7
	c-0.3-0.3-0.5-0.7-0.6-1.1c-0.2-0.5-0.2-0.9-0.2-1.3c0-0.4,0.1-0.8,0.3-1.1c0.2-0.3,0.4-0.6,0.7-0.8c0.3-0.2,0.6-0.4,0.9-0.5
	C-214.4,410.8-214.1,410.8-213.7,410.8z M-216.9,426.2c-0.3,0-0.6-0.1-0.8-0.3c-0.2-0.2-0.3-0.3-0.4-0.5c-0.1-0.3-0.1-0.6,0-0.8
	c0.1-0.3,0.3-0.5,0.6-0.6c0.1,0,0.3-0.1,0.5,0c2.5,0.1,5,0,7.4-0.2c2.4-0.3,4.7-0.7,6.8-1.4c2.2-0.7,4.3-1.7,6.4-2.9
	c2.1-1.2,4.1-2.6,6.2-4.2c0.1-0.1,0.3-0.2,0.4-0.3c0.3-0.1,0.6-0.1,0.9,0.1c0.3,0.2,0.5,0.4,0.5,0.7c0.1,0.2,0.1,0.4,0,0.7
	c-0.1,0.2-0.2,0.5-0.4,0.7c-1,0.8-2,1.7-3,2.5c-1,0.8-2.1,1.6-3.1,2.3c-1.1,0.7-2.2,1.4-3.3,2c-1.1,0.6-2.3,1.1-3.5,1.5
	c-1.2,0.4-2.4,0.7-3.7,0.9c-1.3,0.2-2.5,0.3-3.8,0.4c-1.3,0.1-2.6,0-3.9,0C-214.3,426.4-215.6,426.3-216.9,426.2L-216.9,426.2z"/>
<ellipse id="Oval-7-Copy-3" class="st17" cx="-231.9" cy="340.8" rx="2.2" ry="2.2"/>
<ellipse id="Oval-7-Copy-4" class="st17" cx="-225.2" cy="340.9" rx="2.2" ry="2.2"/>
<ellipse id="Oval-7-Copy-5" class="st17" cx="-218.4" cy="340.7" rx="2.2" ry="2.2"/>
</svg>
